# xmcd CD database file
#
# Track frame offsets:
#	150
#	13222
#	24249
#	35753
#	49159
#	60486
#	71767
#	82551
#	95706
#	107708
#	117807
#	127805
#	138470
#	151051
#	161451
#	172168
#	186201
#	197232
#	209126
#	221129
#	233427
#	244635
#	256509
#	264412
#	273670
#	284968
#	294693
#	307737
#	320133
#	329850
#
# Disc length: 4552 seconds
#
# Revision: 0
# Processed by: cddbd v1.5.2PL0 Copyright (c) Steve Scherf et al.
# Submitted via: Feurio! 1.68 - http://www.feurio.com
#
DISCID=c511c61e
DTITLE=Various Artist - Blues For Dootsie - The Blue and Dootone Sides
DYEAR=1900
DGENRE=blues
TTITLE0=Johnny Taylor and His Mellow Five - West Coast Baby
TTITLE1=Bobby Nunn and His Hot Five - I Got A Country Gal
TTITLE2=Bobby Nunn and His Hot Five - Bring Your Lovin' Back To Me
TTITLE3=Johnny Taylor and His Mellow Five - Rocky Mountain Blues
TTITLE4=Dootsie Williams and Rhythm Kings with Joe Turner - Everybody's Jumpin' 
TTITLE4=Tonight
TTITLE5=Bumps Myers and His Frantic Five (Vocal Bobby Nunn) - I'm Clappin' And 
TTITLE5=Shoutin'
TTITLE6=Bumps Myers and His Frantic Five (Vocal Bobby Nunn) - I'm Telling You 
TTITLE6=Baby
TTITLE7=Dootsie Williams and Rhythm Kings with Joe Turner - Gamblin' Blues
TTITLE8=Johnny Taylor and His Orchestra - Mr Monkey Man
TTITLE9=Johnny Taylor and His Orchestra - Back Alley Blues
TTITLE10=Violet Hall - You'd Better Come Home Baby
TTITLE11=Violet Hall - He's An Ivory Beating Baby (On The Baby Grand)
TTITLE12=Cleo Brown - Roll It Boogie
TTITLE13=Cleo Brown - The Hole In The Wall
TTITLE14=Cleo Brown - Baby, Let's Make Some Love
TTITLE15=Cleo Brown - Blues Boogie
TTITLE16=Bobby Nunn - Anticipating Blues
TTITLE17=Dootsie Williams and Rhythm Kings with Joe Turner - I Love Ya, I Love 
TTITLE17=Ya, I Love Ya (Low Down Dog)
TTITLE18=Pete Johnson and His All Stars (Vocal Big Duke) - Hard Luck, Women and 
TTITLE18=Strife
TTITLE19=Betty Hall Jones - Richmond Blues
TTITLE20=Ressie Mae Jones and Her Combo - Automatic Daddy
TTITLE21=Stormy Herman and His Midnight Ramblers - The Jitterbug
TTITLE22=Stormy Herman - Rent Day
TTITLE23=Stormy Herman - Cadillac Fever
TTITLE24=Stormy Herman and His Midnight Ramblers - Bad Luck
TTITLE25=Fats Gaines - Katy Lee
TTITLE26=Fats Gaines - You're With Me, Baby
TTITLE27=Fats Gaines Orchestra (Vocal Rebecca Williams) - My Man Is Gone
TTITLE28=Paul Monday - Are You Ready To Go Steady
TTITLE29=Paul Monday - My Mistake
EXTD=
EXTT0=
EXTT1=
EXTT2=
EXTT3=
EXTT4=
EXTT5=
EXTT6=
EXTT7=
EXTT8=
EXTT9=
EXTT10=
EXTT11=
EXTT12=
EXTT13=
EXTT14=
EXTT15=
EXTT16=
EXTT17=
EXTT18=
EXTT19=
EXTT20=
EXTT21=
EXTT22=
EXTT23=
EXTT24=
EXTT25=
EXTT26=
EXTT27=
EXTT28=
EXTT29=
PLAYORDER=
